<?xml version="1.0" standalone="no"?>
<!DOCTYPE svg PUBLIC "-//W3C//DTD SVG 1.1//EN" "http://www.w3.org/Graphics/SVG/1.1/DTD/svg11.dtd" >
<!--
2013-9-30: Created.
-->
<svg>
<metadata>
Created by iconfont
</metadata>
<defs>

<font id="foricon" horiz-adv-x="1024" >
  <font-face
    font-family="foricon"
    font-weight="500"
    font-stretch="normal"
    units-per-em="1024"
    ascent="896"
    descent="-128"
  />
    <missing-glyph />
    
    <glyph glyph-name="hr" unicode="&#58881;" d="M69.818182 418.909091h884.363636v-69.818182H69.818182zM733.090909-34.90909099999999h-442.181818V267.63636399999996h442.181818z m-372.363636 69.818182h302.545454v162.909091h-302.545454zM733.090909 500.363636h-442.181818V802.909091h442.181818z m-372.363636 69.818182h302.545454V733.090909h-302.545454z"  horiz-adv-x="1024" />

    
    <glyph glyph-name="text" unicode="&#58880;" d="M439.77561388 660.13855403H173.77043728c-27.39588236 0-49.61558322 28.27961962-49.61558322 63.12415222 0 34.90765557 22.21970085 63.12415221 49.61558322 63.12415092h658.19553205c27.39588236 0 49.6787075-28.21649534 49.67870748-63.12415092 0-34.84453131-22.28282512-63.12415221-49.67870748-63.12415222h-265.94205103V15.45159099c0-27.45900663-28.27961962-49.6787075-63.12415221-49.67870878-34.90765557 0-63.12415221 22.21970085-63.12415221 49.67870878V660.13855403z"  horiz-adv-x="1024" />

    
    <glyph glyph-name="heading" unicode="&#58882;" d="M836.1-63.700000000000045c-35.8 0-64.8 29-64.8 64.8v324H252.8V1c0-35.8-29-64.8-64.8-64.8s-64.8 29-64.8 64.8V778.8c0 35.8 29 64.8 64.8 64.8s64.8-29 64.8-64.8v-324.1h518.5V778.8c0 35.8 29 64.8 64.8 64.8s64.8-29 64.8-64.8V1c0-35.7-29-64.7-64.8-64.7z"  horiz-adv-x="1024" />

    
    <glyph glyph-name="list" unicode="&#58969;" d="M388.59824094 413.5601175H125.8416425A93.8416425 93.8416425 0 0 0 32 507.40175906V770.1583575A93.8416425 93.8416425 0 0 0 125.8416425 864h262.75659844a93.8416425 93.8416425 0 0 0 93.84164156-93.8416425v-262.75659844a93.8416425 93.8416425 0 0 0-93.84164156-93.84164156zM125.8416425 788.92668656a18.76832813 18.76832813 0 0 1-18.76832906-18.76832906v-262.75659844a18.76832813 18.76832813 0 0 1 18.76832906-18.76832812h262.75659844a18.76832813 18.76832813 0 0 1 18.76832812 18.76832812V770.1583575a18.76832813 18.76832813 0 0 1-18.76832812 18.76832906zM388.59824094-96H125.8416425A93.8416425 93.8416425 0 0 0 32-2.1583574999999655V260.59824094a93.8416425 93.8416425 0 0 0 93.8416425 93.84164156h262.75659844a93.8416425 93.8416425 0 0 0 93.84164156-93.84164156v-262.75659844a93.8416425 93.8416425 0 0 0-93.84164156-93.8416425zM125.8416425 279.36656905999996a18.76832813 18.76832813 0 0 1-18.76832906-18.76832812v-262.75659844a18.76832813 18.76832813 0 0 1 18.76832906-18.76832906h262.75659844a18.76832813 18.76832813 0 0 1 18.76832812 18.76832906V260.59824094a18.76832813 18.76832813 0 0 1-18.76832812 18.76832812zM954.46334281 696.96187688H615.695015a37.53665719 37.53665719 0 0 0 0 75.07331343h338.76832781a37.53665719 37.53665719 0 0 0 0-75.07331343zM954.46334281 505.52492625H615.695015a37.53665719 37.53665719 0 0 0 0 75.07331438h338.76832781a37.53665719 37.53665719 0 0 0 0-75.07331438zM954.46334281 186.46334344000002H615.695015a37.53665719 37.53665719 0 0 0 0 75.07331344h338.76832781a37.53665719 37.53665719 0 0 0 0-75.07331344zM954.46334281-4.9736071900000525H615.695015a37.53665719 37.53665719 0 0 0 0 75.07331438h338.76832781a37.53665719 37.53665719 0 0 0 0-75.07331438z"  horiz-adv-x="1024" />

    
    <glyph glyph-name="quit-fullscreen" unicode="&#59221;" d="M400.595 550.635l-0.948 245.022c-0.42 18.881-16.018 30.215-34.956 30.637h-25.406c-18.88 0.42-33.874-16.018-33.457-34.881l1.061-133.251-168.117 165.421c-18.274 18.311-47.844 18.311-66.119 0-18.218-18.314-18.218-47.907 0-66.236l166.575-164.885-127.697-0.512c-18.88 0.477-36.394-12.606-39.26-34.899v-24.08c0.477-18.917 16.077-34.558 34.957-34.972l243.826 1.438c0.362-0.035 0.608-0.171 0.928-0.171l17.1-0.378c9.441-0.226 17.9 3.467 23.923 9.593 6.124 6.083 8.382 14.58 8.131 24.078l-1.821 17.138c0.001 0.335 1.27 0.562 1.27 0.945zM766.211 194.54899999999998l127.524 0.512c18.88-0.421 36.357 11.183 39.26 33.474v24.077c-0.478 18.922-16.134 34.558-34.957 35.037l-240.702-1.458c-0.378 0-0.605 0.151-0.967 0.151l-17.062 0.42c-9.441 0.226-17.95-3.469-23.98-9.611-6.159-6.03-8.361-14.559-8.173-24.057l1.881-17.1c0.033-0.42-1.234-0.661-1.234-0.986l0.986-241.248c0.477-18.863 16.078-30.162 34.957-30.576l24.017-0.037c18.827-0.433 33.874 16.055 33.403 34.941l-1.062 130.388 168.117-166.502c18.276-18.314 47.809-18.314 66.085 0 18.255 18.31 18.255 47.906 0 66.218l-168.095 166.366zM392.992 277.145c-6.028 6.14-14.541 9.834-23.923 9.61l-17.104-0.42c-0.346 0-0.566-0.151-0.948-0.151l-243.81 1.458c-18.881-0.478-34.503-16.112-34.956-35.034v-24.078c2.843-22.292 20.357-33.892 39.206-33.474l129.158-0.42-167.983-166.37c-18.234-18.255-18.234-47.906 0-66.218 18.256-18.314 47.845-18.314 66.102 0l168.137 165.418-1.079-131.185c-0.42-18.922 14.579-35.413 33.424-34.938h25.406c18.937 0.477 34.54 11.713 34.956 30.637l0.987 243.05c0 0.346-1.267 0.571-1.267 0.949l1.821 17.104c0.206 9.495-1.993 18.025-8.116 24.053zM615.434 508.441c6.03-6.123 14.541-9.819 23.965-9.553l17.06 0.378c0.378 0 0.608 0.132 0.986 0.19l244.19-1.457c18.88 0.434 34.482 16.078 34.956 34.994l0.058 24.078c-2.898 22.331-20.439 35.355-39.26 34.939l-129.573 0.511 166.483 164.893c18.31 18.235 18.31 47.83 0.054 66.143-18.276 18.311-47.809 18.311-66.084 0l-168.117-166.447 1.079 134.276c0.454 18.863-14.598 35.355-33.424 34.939h-24.017c-18.881-0.477-34.484-11.773-34.957-30.637l-0.967-245.075c0-0.378 1.251-0.608 1.251-0.948l-1.859-17.138c-0.192-9.499 2.007-17.991 8.173-24.078z"  horiz-adv-x="1024" />

    
    <glyph glyph-name="enter-fullscreen" unicode="&#59302;" d="M218.688721 727.355045l-0.013303 0 0 0.014326L218.688721 727.355045l128.45665 0.556679c19.003819-0.508583 36.624129 13.658068 39.493479 37.807071L386.638851 791.80287c-0.474814 20.503986-16.169261 37.442774-35.158754 37.897122l-245.311055-1.561565c-0.37146 0.040932-0.605797 0.186242-0.935302 0.186242l-17.193591 0.412392c-9.494235 0.24764-18.012236-3.756557-24.087605-10.389628-6.151094-6.591115-8.428973-15.797801-8.18031-26.090215l1.843998-18.562774c0-0.37146-1.280156-0.61296-1.280156-1.025353l0.956791-265.449721c0.412392-20.454868 16.121166-32.736589 35.165918-33.190937l25.552979 0c19.003819-0.454348 34.092469 17.359366 33.665751 37.786605l-1.073448 144.370085 169.152515-179.211615c18.377556-19.84293 48.128137-19.84293 66.518996 0 18.329461 19.835767 18.329461 51.897997 0 71.755254L218.688721 727.355045zM948.293761-3.895471000000043c-0.034792 0.460488 1.238201 0.722454 1.238201 1.073448l-0.014326 0.007163-0.977257 261.362636c-0.481977 20.441565-16.182564 32.67519-35.186384 33.128515l-24.163329 0.034792c-18.934235 0.467651-34.085306-17.385972-33.603329-37.849026l1.073448-141.253094L687.535899 292.98305300000004c-18.405185 19.850094-48.106648 19.850094-66.49853 0-18.36323-19.835767-18.36323-51.897997 0-71.734788l169.104419-180.25027-128.297015-0.550539c-18.989493 0.454348-36.576033-12.115945-39.493479-36.273135l0-26.083052c0.481977-20.4958 16.237823-37.442774 35.17922-37.951357l242.160295 1.582031c0.391926 0 0.611937-0.164752 0.970094-0.164752l17.173125-0.454348c9.495258-0.240477 18.054191 3.76372 24.115234 10.417257 6.212492 6.529717 8.407484 15.763009 8.222265 26.062586L948.293761-3.895471000000043zM386.225435 292.99021700000003l-0.014326 0c-18.36323 19.84907-48.14144 19.84907-66.505693 0L150.561088 113.78576499999997l1.086751 142.119835c0.413416 20.4958-14.675234 38.364773-33.610492 37.849026l-25.574469 0c-19.051915-0.509606-34.745339-12.68695-35.172057-33.183773l-0.99056-263.323291c0-0.37146 1.286296-0.61296 1.286296-1.025353l-1.843998-18.521842c-0.206708-10.299577 2.00875-19.540032 8.167007-26.062586 6.068206-6.653537 14.634302-10.657734 24.067138-10.416234l17.207917 0.454348c0.358157 0 0.578168 0.164752 0.970094 0.164752l245.290589-1.589195c18.989493 0.522909 34.71157 17.455557 35.172057 37.95852l0 26.076912c-2.862187 24.157189-20.482497 36.72032-39.438221 36.273135l-129.955794 0.454348 169.001065 180.24413C404.568199 241.02979800000003 404.568199 273.154449 386.225435 292.99021700000003zM941.984055 818.347432c-6.068206 6.632047-14.634302 10.637268-24.115234 10.354835l-17.152658-0.412392c-0.385786 0-0.61296-0.144286-0.99056-0.206708L654.063553 829.6662220000001c-19.017122-0.474814-34.704406-17.414625-35.186384-37.910425l-0.048095-26.090215c2.917446-24.190959 20.565385-38.302351 39.486316-37.841863l130.368186-0.556679L621.181655 548.618245c-18.418488-19.75288-18.418488-51.815109-0.048095-71.6519l0-0.007163c18.377556-19.84293 48.093345-19.84293 66.491367 0l169.132048 180.327018-1.086751-145.471163c-0.461511-20.434401 14.696724-38.309514 33.617655-37.85619l24.163329 0c18.989493 0.522909 34.69008 12.756535 35.172057 33.197076l0.977257 265.512143c0 0.412392-1.258667 0.661056-1.258667 1.032516l1.851161 18.562774C950.391539 802.550655 948.183244 811.762457 941.984055 818.347432z"  horiz-adv-x="1024" />

    
    <glyph glyph-name="image" unicode="&#58886;" d="M827.63720703 452.77441406a105.33691406 105.33691406 0 1 1 0 210.63867188 105.33691406 105.33691406 0 0 1 0-210.63867188z m184.23808594 350.96308594H151.8875c-34.23779297 0-61.46191406-27.86220703-61.46191406-62.1v-718.12529297c0-34.23691406 27.22412109-62.1 61.46191406-62.1h859.98779297c34.23691406 0 61.46191406 27.86308594 61.46191406 62.1V741.6375c0 34.23779297-27.225 62.1-61.46191406 62.1z m-226.125-433.6875a37.64970703 37.64970703 0 0 1-28.08808594 13.6125c-11.17441406 0-19.04941406-5.24970703-28.08720703-12.4875l-41.02470703-34.68779297c-8.55-6.14970703-15.37558594-10.31220703-25.2-10.31220703a36.29970703 36.29970703 0 0 0-24.15058594 9 297.14941406 297.14941406 0 0 0-9.45 9L511.73720703 471.82470703a48.375 48.375 0 0 1-36.63720703 16.50058594c-14.69970703 0-28.31220703-7.27558594-36.86220703-17.13779297L160.62470703 136.46220702999995V707.85058594c2.17529297 14.92558594 13.80058594 25.68779297 28.72529297 25.68779297h784.8c15.14970703 0 27.41308594-11.21220703 28.31220703-26.325l0.63808594-571.20029297L785.67382813 370.04999999999995z"  horiz-adv-x="1152" />

    
    <glyph glyph-name="code" unicode="&#58901;" d="M295.62717411 708.55923826c-16.64406301 16.64406301-41.61015922 16.64406301-58.25422222 0L-62.22019017 417.28812715c-16.64406301-16.64406301-16.64406301-41.61015922 3e-8-58.25422222l291.27111109-291.27111112c16.64406301-16.64406301 41.61015922-16.64406301 58.25422224 0 16.64406301 16.64406301 16.64406301 41.61015922 0 58.25422222L29.32215922 384l266.30501489 266.30501603c8.32203209 16.64406301 8.32203209 41.61015922 0 58.25422223z m299.59314319 0c-16.64406301 0-41.61015922-8.32203209-49.93219015-33.28812715l-149.7965716-565.89815922c-8.32203209-24.96609507 8.32203209-41.61015922 33.28812715-49.93219015s41.61015922 8.32203209 49.93219015 33.28812715l149.7965716 565.89815922c8.32203209 16.64406301-8.32203209 41.61015922-33.28812715 49.93219015z m490.99987287-291.27111111l-291.27111112 291.27111111c-16.64406301 16.64406301-41.61015922 16.64406301-58.25422222 0-16.64406301-16.64406301-16.64406301-41.61015922 0-58.25422223L994.67784078 384l-266.30501489-266.30501603c-16.64406301-16.64406301-16.64406301-41.61015922 0-58.25422223 16.64406301-16.64406301 41.61015922-16.64406301 58.25422222 0l291.27111111 291.27111111c16.64406301 16.64406301 16.64406301 49.93219014 8.32203095 66.5762543z"  horiz-adv-x="1027" />

    
    <glyph glyph-name="quote" unicode="&#59124;" d="M107.05505849 276.40034418000005a520.64349525 520.64349525 0 0 0 252.2228497 446.59642027 57.84927687 57.84927687 0 1 0 57.84927688-98.9222639 404.94494151 404.94494151 0 0 1-157.92852651-173.54783175h19.09026133a173.54783175 173.54783175 0 1 0-173.54783175-173.54783175z m462.79421838 0a520.64349525 520.64349525 0 0 0 252.22284971 446.01792739 57.84927687 57.84927687 0 1 0 57.84927687-98.92226389 404.94494151 404.94494151 0 0 1-157.92852651-173.54783175h19.09026133a173.54783175 173.54783175 0 1 0-173.54783174-173.54783175z"  horiz-adv-x="1024" />

    
    <glyph glyph-name="table" unicode="&#59082;" d="M997.57321482 701.36414815v-634.97102223c0-25.60758518-9.22358518-47.57428148-27.42802964-65.90008889-18.32580741-18.32580741-40.2925037-27.42802963-65.90008888-27.42802962H119.99762963c-25.60758518 0-47.57428148 9.10222222-65.90008888 27.42802962s-27.42802963 40.2925037-27.42802964 65.90008889V701.36414815c0 25.60758518 9.10222222 47.57428148 27.42802964 65.90008888 18.32580741 18.32580741 40.2925037 27.42802963 65.90008888 27.42802964h784.36882962c25.60758518 0 47.57428148-9.22358518 65.9000889-27.42802964 18.08308148-18.08308148 27.30666667-40.04977778 27.30666667-65.90008888z m-672.35081482-186.53487407v112.01801481c0 5.46133333-1.69908148 9.95176297-5.21860741 13.34992593-3.51952592 3.51952592-8.00995555 5.21860741-13.34992592 5.2186074H119.87626667c-5.46133333 0-9.95176297-1.69908148-13.34992592-5.2186074-3.51952592-3.51952592-5.21860741-8.00995555-5.21860742-13.34992593v-112.01801481c0-5.46133333 1.69908148-9.95176297 5.21860742-13.34992593 3.51952592-3.51952592 8.00995555-5.21860741 13.34992592-5.2186074h186.7776c5.46133333 0 9.95176297 1.69908148 13.34992592 5.2186074 3.51952592 3.39816297 5.21860741 7.88859259 5.21860741 13.34992593z m0-224.27875556v112.01801481c0 5.46133333-1.69908148 9.95176297-5.21860741 13.34992592-3.51952592 3.51952592-8.00995555 5.21860741-13.34992592 5.21860742H119.87626667c-5.46133333 0-9.95176297-1.69908148-13.34992592-5.21860742-3.51952592-3.51952592-5.21860741-8.00995555-5.21860742-13.34992592V290.55051851999997c0-5.46133333 1.69908148-9.95176297 5.21860742-13.34992593 3.51952592-3.51952592 8.00995555-5.21860741 13.34992592-5.21860741h186.7776c5.46133333 0 9.95176297 1.69908148 13.34992592 5.21860741 3.51952592 3.39816297 5.21860741 8.00995555 5.21860741 13.34992593z m0-224.03602963v112.01801481c0 5.46133333-1.69908148 9.95176297-5.21860741 13.34992593-3.51952592 3.51952592-8.00995555 5.21860741-13.34992592 5.2186074H119.87626667c-5.46133333 0-9.95176297-1.69908148-13.34992592-5.2186074-3.51952592-3.51952592-5.21860741-8.00995555-5.21860742-13.34992593v-112.01801481c0-5.46133333 1.69908148-9.95176297 5.21860742-13.34992592 3.51952592-3.51952592 8.00995555-5.21860741 13.34992592-5.21860742h186.7776c5.46133333 0 9.95176297 1.69908148 13.34992592 5.21860742 3.51952592 3.51952592 5.21860741 7.88859259 5.21860741 13.34992592z m298.79561482 448.31478519v112.01801481c0 5.46133333-1.69908148 9.95176297-5.21860741 13.34992593-3.51952592 3.51952592-8.00995555 5.21860741-13.34992593 5.2186074H418.55051852c-5.46133333 0-9.95176297-1.69908148-13.34992593-5.2186074-3.51952592-3.51952592-5.21860741-8.00995555-5.21860741-13.34992593v-112.01801481c0-5.46133333 1.69908148-9.95176297 5.21860741-13.34992593 3.51952592-3.51952592 8.00995555-5.21860741 13.34992593-5.2186074h186.89896296c5.46133333 0 9.95176297 1.69908148 13.34992593 5.2186074 3.51952592 3.39816297 5.21860741 7.88859259 5.21860741 13.34992593z m0-224.27875556v112.01801481c0 5.46133333-1.69908148 9.95176297-5.21860741 13.34992592-3.51952592 3.51952592-8.00995555 5.21860741-13.34992593 5.21860742H418.55051852c-5.46133333 0-9.95176297-1.69908148-13.34992593-5.21860742-3.51952592-3.51952592-5.21860741-8.00995555-5.21860741-13.34992592V290.55051851999997c0-5.46133333 1.69908148-9.95176297 5.21860741-13.34992593 3.51952592-3.51952592 8.00995555-5.21860741 13.34992593-5.21860741h186.89896296c5.46133333 0 9.95176297 1.69908148 13.34992593 5.21860741 3.51952592 3.39816297 5.21860741 8.00995555 5.21860741 13.34992593z m0-224.03602963v112.01801481c0 5.46133333-1.69908148 9.95176297-5.21860741 13.34992593-3.51952592 3.51952592-8.00995555 5.21860741-13.34992593 5.2186074H418.55051852c-5.46133333 0-9.95176297-1.69908148-13.34992593-5.2186074-3.51952592-3.51952592-5.21860741-8.00995555-5.21860741-13.34992593v-112.01801481c0-5.46133333 1.69908148-9.95176297 5.21860741-13.34992592 3.51952592-3.51952592 8.00995555-5.21860741 13.34992593-5.21860742h186.89896296c5.46133333 0 9.95176297 1.69908148 13.34992593 5.21860742 3.51952592 3.51952592 5.21860741 7.88859259 5.21860741 13.34992592z m298.79561481 448.31478519v112.01801481c0 5.46133333-1.69908148 9.95176297-5.21860741 13.34992593-3.51952592 3.51952592-8.00995555 5.21860741-13.34992592 5.2186074H717.4674963c-5.46133333 0-9.95176297-1.69908148-13.34992593-5.2186074-3.51952592-3.51952592-5.21860741-8.00995555-5.2186074-13.34992593v-112.01801481c0-5.46133333 1.69908148-9.95176297 5.2186074-13.34992593 3.51952592-3.51952592 8.00995555-5.21860741 13.34992593-5.2186074h186.7776c5.46133333 0 9.95176297 1.69908148 13.34992592 5.2186074 3.51952592 3.39816297 5.21860741 7.88859259 5.21860741 13.34992593z m0-224.27875556v112.01801481c0 5.46133333-1.69908148 9.95176297-5.21860741 13.34992592-3.51952592 3.51952592-8.00995555 5.21860741-13.34992592 5.21860742H717.4674963c-5.46133333 0-9.95176297-1.69908148-13.34992593-5.21860742-3.51952592-3.51952592-5.21860741-8.00995555-5.2186074-13.34992592V290.55051851999997c0-5.46133333 1.69908148-9.95176297 5.2186074-13.34992593 3.51952592-3.39816297 8.00995555-5.21860741 13.34992593-5.21860741h186.7776c5.46133333 0 9.95176297 1.69908148 13.34992592 5.21860741s5.21860741 8.00995555 5.21860741 13.34992593z m0-224.03602963v112.01801481c0 5.46133333-1.69908148 9.95176297-5.21860741 13.34992593-3.51952592 3.51952592-8.00995555 5.21860741-13.34992592 5.2186074H717.4674963c-5.46133333 0-9.95176297-1.69908148-13.34992593-5.2186074-3.51952592-3.51952592-5.21860741-8.00995555-5.2186074-13.34992593v-112.01801481c0-5.46133333 1.69908148-9.95176297 5.2186074-13.34992592 3.51952592-3.51952592 8.00995555-5.21860741 13.34992593-5.21860742h186.7776c5.46133333 0 9.95176297 1.69908148 13.34992592 5.21860742 3.51952592 3.51952592 5.21860741 7.88859259 5.21860741 13.34992592z"  horiz-adv-x="1024" />

    
    <glyph glyph-name="visible" unicode="&#59023;" d="M513.21362963 67.60675555c-202.91887408 0-367.24432592 93.20675555-492.8549926 279.4989037-14.44219259 21.35988148-14.32082963 49.39472592 0.24272594 70.75460742C147.91111111 604.27377778 312.1152 697.48053333 513.21362963 697.48053333s365.30251852-93.20675555 492.73362962-279.62026666c14.56355555-21.35988148 14.56355555-49.39472592 0.24272593-70.75460742-125.73202963-186.29214815-290.05748148-279.4989037-492.97635555-279.4989037z m0 125.97475556c106.79940741 0 193.3312 84.58998518 193.3312 188.96213334S620.01303703 571.50577778 513.21362963 571.50577778s-193.3312-84.58998518-193.3312-188.96213333S406.41422222 193.58151110999995 513.21362963 193.58151110999995z m0.24272592 93.08539259c-53.3997037 0-96.72628148 42.23431111-96.72628147 94.54174815 0 52.18607408 43.32657778 94.54174815 96.72628147 94.54174815s96.60491852-42.35567408 96.60491853-94.54174815c0-52.18607408-43.20521482-94.54174815-96.60491853-94.54174815z"  horiz-adv-x="1024" />

    
    <glyph glyph-name="invisible" unicode="&#59028;" d="M313.57155555 656.45985185c63.95828148 22.9376 131.55745185 34.46708148 199.64207408 33.98162963 200.8557037 0 364.93842963-90.05131852 492.24817778-269.91122963 15.17037037-21.48124445 15.29173333-49.75881482 0.24272592-71.24005926-55.09878518-79.00728889-117.72207408-140.53831111-187.7485037-184.83579259l84.10453334-82.16272592-45.63247408-44.54020741-664.09813334 648.07822222 45.63247408 44.41884444 75.60912592-73.78868148z m369.06477037-360.0839111c15.4130963 26.2144 24.02986667 56.43377778 24.02986667 88.59496295 0 101.21671111-86.65315555 183.37943703-193.57392592 183.37943705-31.91845925 0-61.89511111-7.28177778-88.4736-20.26761483l75.3664-73.66731851c4.36906667 0.60681482 8.73813333 0.84954075 13.22856296 0.84954074 53.52106667 0 96.72628148-41.02068148 96.72628148-91.62903704 0-5.21860741-0.48545185-10.31585185-1.33499259-15.29173333l74.0314074-71.96823703zM194.87857778 595.5356444500001l140.9024-137.38287408c-10.31585185-22.45214815-16.01991111-47.21019259-16.01991111-73.18186667 0-101.21671111 86.65315555-183.25807408 193.57392592-183.25807407 25.36485925 0 49.63745185 4.61179259 71.96823704 13.1072l110.44029629-107.77031111c-58.86103703-18.6898963-120.51342222-27.91348148-182.40853333-27.5493926-202.55478518 0-366.63751111 89.92995555-492.36954074 269.78986667-15.04900741 21.48124445-14.92764445 49.88017778 0.24272593 71.36142223 51.57925925 73.0605037 109.59075555 131.43608889 173.6704 174.88402963z m310.81054814-303.40740742c-48.30245925 3.76225185-86.53179259 40.89931852-88.95905184 86.89588149l88.95905184-86.89588149z"  horiz-adv-x="1024" />

    
    <glyph glyph-name="link" unicode="&#59391;" d="M531.80643555 500.50844445a58.25422222 58.25422222 0 0 1 0-82.13845334 85.05116445 85.05116445 0 0 0 0-120.00369778L360.53902222 125.35125332999996a85.05116445 85.05116445 0 1 0-120.00369777 120.00369778l38.44778666 41.36049778a58.25422222 58.25422222 0 0 1-82.72099556 82.13845333l-38.44778666-43.10812444a201.55960889 201.55960889 0 0 1 284.86314666-284.86314667l171.84995556 171.84995556a201.55960889 201.55960889 0 0 1 0 284.86314666A58.25422222 58.25422222 0 0 1 531.80643555 500.50844445zM851.03957333 733.52533333a206.21994667 206.21994667 0 0 1-284.86314666 0L395.49155555 564.0055466700001a201.55960889 201.55960889 0 0 1 0-284.86314667 58.25422222 58.25422222 0 0 1 82.72099556 82.13845333 85.05116445 85.05116445 0 0 0 0 120.00369778l171.84995556 171.84995556a86.79879111 86.79879111 0 0 0 120.00369778 0 85.05116445 85.05116445 0 0 0 0-120.00369778l-41.36049778-41.36049778a58.25422222 58.25422222 0 0 1 82.13845333-82.72099556l41.36049778 41.36049778A201.55960889 201.55960889 0 0 1 851.03957333 733.52533333z"  horiz-adv-x="1024" />

    
    <glyph glyph-name="subfield" unicode="&#60543;" d="M68.26666667 793.6v-750.93333333a68.26666667 68.26666667 0 0 1 68.26666666-68.26666667h750.93333334a68.26666667 68.26666667 0 0 1 68.26666666 68.26666667V793.6H68.26666667z m68.26666666-136.53333333h341.33333334v-614.4H136.53333333V657.06666667z m750.93333334-614.4H546.13333333V657.06666667h341.33333334v-614.4z"  horiz-adv-x="1024" />

    
    <glyph glyph-name="save" unicode="&#58906;" d="M75.09333333-52.90666667000005V820.90666667h656.74353778L948.90666667 602.4533333300001v-655.36H75.09333333zM293.54666667 675.27111111v-218.45333333h145.63555555V675.27111111H293.54666667z m0-364.08888889v-291.27111111h436.90666666V311.18222221999997H293.54666667z"  horiz-adv-x="1024" />

    
    <glyph glyph-name="outline" unicode="&#59050;" d="M662 24H392a60 60 0 0 0-60 60V534H182v300h360v-300H392V384h270V474h240v-240h-240V324H392v-240h270v90h240v-240h-240V24zM332 594h150v180h-240v-180H332zM722 384v-90h120v120h-120V384z m0-300v-90h120v120h-120v-30z"  horiz-adv-x="1024" />

    
    <glyph glyph-name="collapse" unicode="&#58978;" d="M132.4 651.3h760.7c20.1 0 36.5 16.3 36.5 36.5s-16.3 36.5-36.5 36.5H132.4c-20.1 0-36.5-16.3-36.5-36.5s16.4-36.5 36.5-36.5zM893.1 517.4H397.5c-20.1 0-36.5-16.3-36.5-36.5 0-20.1 16.3-36.5 36.5-36.5h495.6c20.1 0 36.5 16.3 36.5 36.5 0 20.1-16.3 36.5-36.5 36.5zM893.1 307.29999999999995H397.5c-20.1 0-36.5-16.3-36.5-36.5s16.3-36.5 36.5-36.5h495.6c20.1 0 36.5 16.3 36.5 36.5s-16.3 36.5-36.5 36.5zM893.1 104.29999999999995H132.4c-20.1 0-36.5-16.3-36.5-36.5s16.3-36.5 36.5-36.5h760.7c20.1 0 36.5 16.3 36.5 36.5s-16.3 36.5-36.5 36.5zM129 235.20000000000005l172.3 128.6c9.8 7.3 9.7 20.8-0.1 28L128.9 518.5c-13.3 9.8-33.4 1.3-33.4-14v-255.3c-0.1-15.5 20.2-24 33.5-14z"  horiz-adv-x="1024" />

    
    <glyph glyph-name="katex" unicode="&#58905;" d="M469.33333334-6H109.33333334a30 30 0 0 0-25.2 46.8L313.33333334 384 84.13333334 727.2A30 30 0 0 0 109.33333334 774h360a30 30 0 0 0 0-60H165.13333334l209.4-313.2a31.2 31.2 0 0 0 0-33.6L165.13333334 54H469.33333334a30 30 0 0 0 0-60zM589.33333334-6a34.2 34.2 0 0 0-16.8 4.8 30.6 30.6 0 0 0-8.4 42l240 360a30 30 0 0 0 50.4-33.6l-240-360a31.2 31.2 0 0 0-25.2-13.2zM829.33333334-6a31.2 31.2 0 0 0-25.2 13.2l-240 360a30 30 0 1 0 50.4 33.6l240-360a30.6 30.6 0 0 0-8.4-42 34.2 34.2 0 0 0-16.8-4.8zM919.33333334 654h-300a30 30 0 0 0 0 60h300a30 30 0 0 0 0-60zM769.33333334 504a30 30 0 0 0-30 30v300a30 30 0 0 0 60 0v-300a30 30 0 0 0-30-30z"  horiz-adv-x="1024" />

    
    <glyph glyph-name="more" unicode="&#58940;" d="M512 805.875a93.75000019 93.75000019 0 0 1-93.75000019-93.75000019 93.75000019 93.75000019 0 0 1 93.75000019-93.75000018 93.75000019 93.75000019 0 0 1 93.75000019 93.75000018 93.75000019 93.75000019 0 0 1-93.75000019 93.75000019zM418.24999981 55.87500019000004a93.75000019 93.75000019 0 0 1 93.75000019-93.75000019 93.75000019 93.75000019 0 0 1 93.75000019 93.75000019 93.75000019 93.75000019 0 0 1-93.75000019 93.75000018 93.75000019 93.75000019 0 0 1-93.75000019-93.75000018zM418.24999981 384a93.75000019 93.75000019 0 0 1 93.75000019-93.75000019 93.75000019 93.75000019 0 0 1 93.75000019 93.75000019 93.75000019 93.75000019 0 0 1-93.75000019 93.75000019 93.75000019 93.75000019 0 0 1-93.75000019-93.75000019z"  horiz-adv-x="1024" />

    
    <glyph glyph-name="undo" unicode="&#58944;" d="M62 484.0000002L461.9999999 834v-204.75C962 508.9999998 962-66 962-66s-174.9999999 404.25000029-500.0000001 404.25000029V134.00000038999997z"  horiz-adv-x="1024" />

    
    <glyph glyph-name="redo" unicode="&#58945;" d="M962 484.0000002L562.0000001 834v-204.75C62 508.9999998 62-66 62-66s174.9999999 404.25000029 500.0000001 404.25000029V134.00000038999997z"  horiz-adv-x="1024" />

    
    <glyph glyph-name="hint" unicode="&#59125;" d="M464.86869333 517.09269333h94.37184v-392.01450666h-94.37184v392.01450666z m47.18592 125.71989334a47.18592 47.18592 0 1 0-47.18592-47.18592 47.19684267 47.19684267 0 0 0 47.18592 47.18592z m0 197.80949333a456.62208 456.62208 0 1 1 456.45824-456.45824 456.56746667 456.56746667 0 0 1-456.45824 456.45824z m0.10922667-810.02496a353.34826667 353.34826667 0 1 0 353.23904 353.56672 353.533952 353.533952 0 0 0-353.23904-353.56672z"  horiz-adv-x="1024" />

    


  </font>
</defs>
</svg>
